# xmcd
#
# Track frame offsets:
#	150
#	15847
#	29247
#	42210
#	54685
#	67047
#	79097
#	89472
#	102860
#	116985
#	130122
#	141405
#
# Disc length: 2044
#
# Revision: 2
# Processed by: cddbd v1.5.1PL0 Copyright (c) Steve Scherf et al.
# Submitted via: audiograbber 1.83.01
# Normalized: r1:DSETVAR1
#
DISCID=a907fa0c
DTITLE=Various Artist - Best of Country Gospel
DYEAR=1996
DGENRE=Country
TTITLE0=Willie Nelson - Tell It To Jesus
TTITLE1=Merle Haggard - When God Comes and Gathers His Jewels
TTITLE2=Lorretta Lynn - Peace in The Valley
TTITLE3=Conway Twitty - Who Will Pray For Me
TTITLE4=Jan Howard - The Lord's Prayer
TTITLE5=The Jordanaires - The Church in The Wildwood
TTITLE6=Kitty Wells - Dust On The Bible
TTITLE7=Webb Pierce - If Jesus Came to Your House
TTITLE8=Osborne Brothers - Rock of Ages
TTITLE9=Barbara Mandrell - Swing Low Sweet Chariot
TTITLE10=Bill Monroe - I Saw The Light
TTITLE11=Ernest Tubb - Stand By Me
EXTD=
EXTT0=
EXTT1=
EXTT2=
EXTT3=
EXTT4=
EXTT5=
EXTT6=
EXTT7=
EXTT8=
EXTT9=
EXTT10=
EXTT11=
PLAYORDER=
